<svg width="117" height="123" viewBox="0 0 117 123" fill="none" xmlns="http://www.w3.org/2000/svg">
<g clip-path="url(#clip0_3521_25)">
<path fill-rule="evenodd" clip-rule="evenodd" d="M72.25 66.0001C73.7467 63.9771 75.572 62.2194 77.65 60.8001C81.35 58.2601 85.79 56.8001 91.05 55.8701C91.457 55.8004 91.8751 55.895 92.2125 56.1331C92.5499 56.3711 92.7792 56.7333 92.85 57.1401C92.8859 57.3405 92.8817 57.546 92.8376 57.7447C92.7936 57.9435 92.7106 58.1315 92.5934 58.2979C92.4762 58.4644 92.3272 58.606 92.155 58.7145C91.9828 58.823 91.7907 58.8963 91.59 58.9301C86.74 59.7901 82.69 61.1001 79.39 63.3601C76.5791 65.3214 74.295 67.9455 72.74 71.0001C85.36 72.2601 92.83 71.0001 98.26 67.0801C103.69 63.1601 107.26 56.3901 112.02 46.6501C110.63 46.7401 109.18 46.8101 107.7 46.8701C98.13 47.3201 87.7 47.8001 81.11 53.5601C79.3065 55.1652 77.6653 56.9437 76.21 58.8701C74.7571 60.7565 73.4213 62.7302 72.21 64.7801V66.0001H72.25ZM67.78 34.0001C67.22 34.0001 66.66 33.9001 66.11 33.8301C65.56 33.7601 64.88 33.6501 64.31 33.5501C63.7508 33.4549 63.1967 33.3314 62.65 33.1801V28.3801C63.35 28.4401 64.1 28.4901 64.91 28.5301C65.72 28.5701 66.54 28.6001 67.37 28.6201H69.69C70.2571 28.6301 70.8236 28.5799 71.38 28.4701C71.753 28.4047 72.0998 28.2348 72.38 27.9801C72.5049 27.8413 72.6009 27.6789 72.6621 27.5024C72.7233 27.326 72.7486 27.1391 72.7365 26.9527C72.7244 26.7663 72.6751 26.5843 72.5915 26.4172C72.508 26.2502 72.3919 26.1016 72.25 25.9801C71.9193 25.7491 71.5233 25.6299 71.12 25.6401H69.5C67.5673 25.7773 65.649 25.2206 64.09 24.0701C61.43 21.8101 61.62 15.2401 64.28 13.0701C65.2952 12.2741 66.5025 11.7601 67.78 11.5801V9.1001H72.15V11.4801L72.84 11.5401C73.69 11.6301 74.49 11.7501 75.24 11.8801C75.99 12.0101 76.66 12.1501 77.24 12.2901V17.0001C76.3 16.9201 75.24 16.8501 74.06 16.8001C72.88 16.7501 71.81 16.7201 70.85 16.7201C70.3341 16.7151 69.8188 16.7552 69.31 16.8401C68.9344 16.9039 68.5864 17.0779 68.31 17.3401C68.0417 17.6589 67.9048 18.0678 67.9271 18.4838C67.9494 18.8999 68.1292 19.2918 68.43 19.5801C68.8699 19.8802 69.3991 20.0213 69.93 19.9801H71.93C73.1743 19.9375 74.4083 20.2201 75.51 20.8001C76.4328 21.3022 77.1849 22.0682 77.67 23.0001C78.78 25.1501 78.67 29.4001 77.37 31.3501C76.6945 32.3746 75.6659 33.1149 74.48 33.4301C73.7171 33.6399 72.9375 33.7837 72.15 33.8601V36.5501H67.78V33.9301V34.0001ZM2.77 77.8001H18.24C18.9738 77.8054 19.6758 78.1006 20.1928 78.6214C20.7099 79.1422 21 79.8463 21 80.5801V112.41C20.9974 113.144 20.7047 113.847 20.1858 114.366C19.6669 114.885 18.9638 115.177 18.23 115.18H2.77C2.03616 115.177 1.33313 114.885 0.814225 114.366C0.29532 113.847 0.00263499 113.144 0 112.41L0 80.5801C-4.75885e-06 79.8445 0.291514 79.1389 0.810704 78.6179C1.32989 78.0968 2.03443 77.8027 2.77 77.8001ZM25.24 112V80.8001H39.29C45.29 81.8701 51.2 85.1001 57.16 88.8001H68.07C73.01 89.1001 75.59 94.1101 70.8 97.4001C66.97 100.2 61.92 100.04 56.8 99.5801C53.23 99.4001 53.07 104.2 56.8 104.22C58.09 104.32 59.49 104.01 60.72 104.01C67.18 104.01 72.5 102.77 75.72 97.6701L77.35 93.8501L93.59 85.8001C101.71 83.1301 107.48 91.6201 101.5 97.5301C90.1827 105.8 78.0735 112.929 65.35 118.81C56.35 124.26 47.44 124.08 38.48 118.81L25.24 112ZM70.32 9.74541e-05C76.3986 -0.0317158 82.2525 2.29611 86.6493 6.49355C91.0461 10.691 93.6429 16.4306 93.893 22.5042C94.1431 28.5777 92.027 34.5114 87.9901 39.0561C83.9533 43.6008 78.3106 46.402 72.25 46.8701V59.0001C72.75 58.2901 73.25 57.6101 73.75 57.0001C75.3297 54.9161 77.1044 52.9874 79.05 51.2401C86.41 44.7701 97.47 44.2401 107.56 43.7901C109.89 43.6801 112.17 43.5701 114.46 43.3801C114.735 43.3616 115.01 43.4133 115.26 43.5301C115.63 43.7092 115.914 44.0278 116.049 44.416C116.184 44.8042 116.159 45.2301 115.98 45.6001C110.43 57.0601 106.51 64.9101 100.08 69.6001C94 74.0001 85.82 75.4401 72.25 74.0701V76.4301C80.1 77.2001 87.37 78.1801 91.42 81.4301L76.84 88.7001C76.2968 87.8459 75.6218 87.0832 74.84 86.4401C73.1237 85.0556 71.036 84.2101 68.84 84.0101C68.5979 83.9782 68.3541 83.9615 68.11 83.9601H58.53C55.2098 81.8506 51.7291 80.0049 48.12 78.4401C53.2 76.6901 59.94 76.2401 66.72 76.1801V69.8001C62.8828 70.2141 59.0025 69.9432 55.26 69.0001C52.9964 68.37 50.8873 67.2791 49.065 65.7958C47.2427 64.3125 45.7464 62.4687 44.67 60.3801C44.6572 60.3481 44.6404 60.3179 44.62 60.2901L40.25 51.2901C40.1411 51.0663 40.0775 50.8232 40.0628 50.5747C40.0481 50.3263 40.0826 50.0774 40.1644 49.8423C40.2462 49.6072 40.3736 49.3906 40.5393 49.2049C40.705 49.0192 40.9057 48.868 41.13 48.7601C41.4209 48.6143 41.7453 48.5487 42.07 48.5701L56.71 49.4701H56.95C59.68 49.8101 62.68 50.1901 65.39 52.5801C65.8387 52.9771 66.2659 53.3977 66.67 53.8401C66.67 51.0201 66.85 49.1301 66.88 46.7301C60.9807 45.8993 55.6178 42.8572 51.8777 38.2199C48.1377 33.5827 46.3002 27.6971 46.7376 21.7557C47.175 15.8143 49.8545 10.2613 54.2333 6.22168C58.612 2.1821 64.3626 -0.0419585 70.32 9.74541e-05ZM70.32 3.7801C74.8781 3.77778 79.296 5.35615 82.8208 8.24623C86.3456 11.1363 88.7591 15.1592 89.65 19.6294C90.541 24.0997 89.8542 28.7405 87.7068 32.7611C85.5594 36.7817 82.0842 39.9332 77.8735 41.6786C73.6628 43.424 68.9771 43.6552 64.615 42.3329C60.2529 41.0106 56.4843 38.2165 53.9515 34.4269C51.4186 30.6373 50.2783 26.0866 50.7247 21.5504C51.1712 17.0142 53.1769 12.7732 56.4 9.5501C58.2262 7.71932 60.3959 6.26718 62.7846 5.27701C65.1734 4.28684 67.7342 3.77814 70.32 3.7801ZM66.72 66.0001V65.7001C66.2702 65.1399 65.7413 64.6481 65.15 64.2401C63.6986 63.322 62.0815 62.697 60.39 62.4001C60.1695 62.3821 59.9555 62.3171 59.7622 62.2096C59.569 62.102 59.401 61.9543 59.2695 61.7764C59.1381 61.5985 59.0462 61.3946 59.0001 61.1782C58.954 60.9619 58.9547 60.7382 59.0023 60.5222C59.0498 60.3062 59.143 60.1028 59.2756 59.9258C59.4083 59.7488 59.5772 59.6022 59.7712 59.4959C59.9652 59.3896 60.1797 59.3261 60.4002 59.3096C60.6208 59.293 60.8423 59.3239 61.05 59.4001C63.0598 59.7655 64.9831 60.505 66.72 61.5801V61.1801C66.65 60.9801 66.57 60.7701 66.49 60.5801C65.7196 58.613 64.5006 56.853 62.93 55.4401C61.08 53.8101 58.7 53.5101 56.52 53.2401H56.47L45.07 52.5401L48.07 58.6301C48.9146 60.2639 50.0865 61.7063 51.5127 62.8676C52.9389 64.0289 54.5889 64.8841 56.36 65.3801C59.7492 66.1999 63.2572 66.4099 66.72 66.0001Z" fill="#FFB426"/>
</g>
<defs>
<clipPath id="clip0_3521_25">
<rect width="116.14" height="122.88" fill="white"/>
</clipPath>
</defs>
</svg>
