<svg width="123" height="116" viewBox="0 0 123 116" fill="none" xmlns="http://www.w3.org/2000/svg">
<g clip-path="url(#clip0_3521_7)">
<path d="M80.3299 52.4499C80.3299 53.7399 79.2799 54.7899 77.9899 54.7899C76.6999 54.7899 75.6499 53.7399 75.6499 52.4499V37.9799C75.6499 36.6899 76.6999 35.6399 77.9899 35.6399C79.2799 35.6399 80.3299 36.6899 80.3299 37.9799V52.4499Z" fill="#393939"/>
<path d="M80.3299 113.36C80.3299 114.65 79.2799 115.7 77.9899 115.7C76.6999 115.7 75.6499 114.65 75.6499 113.36V98.89C75.6499 97.6 76.6999 96.55 77.9899 96.55C79.2799 96.55 80.3299 97.6 80.3299 98.89V113.36Z" fill="#393939"/>
<path d="M69.9998 49.23H85.7698C86.8998 49.23 87.9298 49.7 88.6898 50.46C89.4798 51.25 89.9698 52.35 89.9698 53.56V96.82C89.9698 98.03 89.4798 99.13 88.6898 99.92C87.9298 100.68 86.8998 101.15 85.7698 101.15H69.9998C68.8698 101.15 67.8398 100.68 67.0798 99.92C66.2898 99.13 65.7998 98.03 65.7998 96.82V53.56C65.7998 52.35 66.2898 51.25 67.0798 50.46C67.8498 49.7 68.8798 49.23 69.9998 49.23ZM83.7498 55.71H72.0298V94.66H83.7498V55.71Z" fill="#393939"/>
<path fill-rule="evenodd" clip-rule="evenodd" d="M70.0002 52.47H85.7701C86.3701 52.47 86.8602 52.96 86.8602 53.56V96.82C86.8602 97.42 86.3701 97.91 85.7701 97.91H70.0002C69.4002 97.91 68.9102 97.42 68.9102 96.82V53.56C68.9202 52.96 69.4102 52.47 70.0002 52.47Z" fill="#FFB426"/>
<path d="M113.02 43.35C113.02 44.64 111.97 45.69 110.68 45.69C109.39 45.69 108.34 44.64 108.34 43.35V23.85C108.34 22.56 109.39 21.51 110.68 21.51C111.97 21.51 113.02 22.56 113.02 23.85V43.35Z" fill="#393939"/>
<path d="M113.02 103.03C113.02 104.32 111.97 105.37 110.68 105.37C109.39 105.37 108.34 104.32 108.34 103.03V83.54C108.34 82.25 109.39 81.2 110.68 81.2C111.97 81.2 113.02 82.25 113.02 83.54V103.03Z" fill="#393939"/>
<path d="M102.91 40.1001H118.68C119.81 40.1001 120.84 40.5701 121.6 41.3301C122.39 42.1201 122.88 43.2201 122.88 44.4301V80.8101C122.88 82.0201 122.39 83.1201 121.6 83.9101C120.84 84.6701 119.81 85.1401 118.68 85.1401H102.91C101.78 85.1401 100.75 84.6701 99.99 83.9101C99.2 83.1201 98.71 82.0301 98.71 80.8101V44.4301C98.71 43.2201 99.2 42.1201 99.99 41.3301C100.75 40.5801 101.78 40.1001 102.91 40.1001ZM116.66 46.5901H104.94V78.6701H116.66V46.5901Z" fill="#393939"/>
<path fill-rule="evenodd" clip-rule="evenodd" d="M102.91 43.3501H118.68C119.28 43.3501 119.77 43.8401 119.77 44.4401V80.8201C119.77 81.4201 119.28 81.9101 118.68 81.9101H102.91C102.31 81.9101 101.82 81.4201 101.82 80.8201V44.4301C101.82 43.8301 102.31 43.3501 102.91 43.3501Z" fill="#020202"/>
<path d="M47.3299 19.69C47.3299 20.98 46.2799 22.03 44.9899 22.03C43.6999 22.03 42.6499 20.98 42.6499 19.69V2.34C42.6499 1.05 43.6999 0 44.9899 0C46.2799 0 47.3299 1.05 47.3299 2.34V19.69Z" fill="#393939"/>
<path d="M47.3299 90.41C47.3299 91.7 46.2799 92.75 44.9899 92.75C43.6999 92.75 42.6499 91.7 42.6499 90.41V73.07C42.6499 71.78 43.6999 70.73 44.9899 70.73C46.2799 70.73 47.3299 71.78 47.3299 73.07V90.41Z" fill="#393939"/>
<path d="M37.0999 16.45H52.8699C53.9999 16.45 55.0299 16.92 55.7899 17.68C56.5799 18.47 57.0699 19.57 57.0699 20.78V70.9499C57.0699 72.1599 56.5799 73.26 55.7899 74.05C55.0299 74.81 53.9999 75.2799 52.8699 75.2799H37.0999C35.9799 75.2799 34.9399 74.81 34.1799 74.05C33.3899 73.26 32.8999 72.1699 32.8999 70.9499V20.78C32.8999 19.57 33.3899 18.47 34.1799 17.68C34.9399 16.92 35.9799 16.45 37.0999 16.45ZM50.8499 22.93H39.1299V68.79H50.8499V22.93Z" fill="#393939"/>
<path fill-rule="evenodd" clip-rule="evenodd" d="M37.0998 19.6899H52.8698C53.4698 19.6899 53.9598 20.1799 53.9598 20.7799V70.9499C53.9598 71.5499 53.4698 72.0399 52.8698 72.0399H37.0998C36.4998 72.0399 36.0098 71.5499 36.0098 70.9499V20.7799C36.0098 20.1799 36.4998 19.6899 37.0998 19.6899Z" fill="#020202"/>
<path d="M14.43 97.2001C14.43 98.4901 13.38 99.5401 12.09 99.5401C10.8 99.5401 9.75 98.4901 9.75 97.2001V76.9001C9.75 75.6101 10.8 74.5601 12.09 74.5601C13.38 74.5601 14.43 75.6101 14.43 76.9001V97.2001Z" fill="#393939"/>
<path d="M14.43 28.2201C14.43 29.5101 13.38 30.5601 12.09 30.5601C10.8 30.5601 9.75 29.5101 9.75 28.2201V7.93009C9.75 6.64009 10.8 5.59009 12.09 5.59009C13.38 5.59009 14.43 6.64009 14.43 7.93009V28.2201Z" fill="#393939"/>
<path d="M4.2 25.5701H19.97C21.1 25.5701 22.13 26.0401 22.89 26.8001C23.68 27.5901 24.17 28.6901 24.17 29.9001V75.8201C24.17 77.0301 23.68 78.1301 22.89 78.9201C22.13 79.6801 21.1 80.1501 19.97 80.1501H4.2C3.07 80.1501 2.04 79.6801 1.28 78.9201C0.49 78.1301 0 77.0301 0 75.8201V29.9001C0 28.6901 0.49 27.5901 1.28 26.8001C2.04 26.0401 3.07 25.5701 4.2 25.5701ZM17.95 32.0501H6.22V73.6601H17.94V32.0501H17.95Z" fill="#393939"/>
<path fill-rule="evenodd" clip-rule="evenodd" d="M4.19986 28.8101H19.9699C20.5699 28.8101 21.0599 29.3001 21.0599 29.9001V75.8201C21.0599 76.4201 20.5699 76.9101 19.9699 76.9101H4.19986C3.59986 76.9101 3.10986 76.4201 3.10986 75.8201V29.9001C3.10986 29.3001 3.59986 28.8101 4.19986 28.8101Z" fill="#FFB426"/>
</g>
<defs>
<clipPath id="clip0_3521_7">
<rect width="122.88" height="115.71" fill="white"/>
</clipPath>
</defs>
</svg>
